<svg id="Capa_1" data-name="Capa 1" xmlns="http://www.w3.org/2000/svg" viewBox="0 0 208.8 52.88"><defs><style>.cls-1{fill:#122471;}</style></defs><path class="cls-1" d="M11,16a38.45,38.45,0,0,0-.5-6.34c-.07-.4.2-.32.4-.32H22.21c2.61,0,5.22,0,7.82,0a20.25,20.25,0,0,1,8.52,1.93,15.09,15.09,0,0,1,7.54,8.34,23.73,23.73,0,0,1,1.54,9.55,22.09,22.09,0,0,1-2,9,15.11,15.11,0,0,1-9.79,8.34,23.74,23.74,0,0,1-6.75.91h-14A3.87,3.87,0,0,1,11,43.43c0-4.94,0-9.88,0-14.82C11,28.61,11,20.23,11,16Zm8.22,13c0,3.66,0,7.31,0,11,0,.42.14.51.52.51,3.23,0,6.45,0,9.67,0a8.71,8.71,0,0,0,7.5-4.09,13.3,13.3,0,0,0,2.16-6.6,15,15,0,0,0-1.54-8.39,9,9,0,0,0-8.47-5.14c-3.23,0-6.45,0-9.67,0-.09,0-.21,0-.27,0a.45.45,0,0,0-.2.28c.08.77.25,1.53.26,2.3C19.22,22.29,19.24,29.07,19.25,29.07Z" transform="translate(-10.52 -9.36)"/><path class="cls-1" d="M138.78,18.7c-.05-2.29-.29-4.57-.46-6.85,0-.32,0-.42.36-.42,5.76,0,11.51,0,17.26,0a15.72,15.72,0,0,1,7.55,1.71,8.93,8.93,0,0,1,4.56,6.14,13.57,13.57,0,0,1,.18,5.46,11.26,11.26,0,0,1-3.43,6.35,11.76,11.76,0,0,1-2.87,2c-.24.12-.34.22-.17.5q3.15,5.45,6.29,10.88a9.73,9.73,0,0,0,2.11,2.62c.28.23.23.34-.06.49a10.12,10.12,0,0,1-5.75,1,5.93,5.93,0,0,1-3.4-1.19A6,6,0,0,1,159.62,46c-2.15-3.61-4.25-7.26-6.35-10.9a.8.8,0,0,0-.78-.45c-1.66,0-3.32,0-5,0-.35,0-.46.09-.46.47q0,3.69,0,7.38a2.88,2.88,0,0,1-2.79,2.94c-1.73.05-3.4-.08-5.13-.07-.29,0-.29-.18-.29-.4C138.84,43.94,138.85,22.45,138.78,18.7Zm8.2-1c-.18,0-.37,0-.32.28a24.6,24.6,0,0,1,.36,2.83c0,2.33,0,4.66,0,7,0,.37.09.51.48.51,1.83,0,3.67,0,5.5,0a9.86,9.86,0,0,0,2.1-.23,5.45,5.45,0,0,0,4.51-5.81,4.21,4.21,0,0,0-2.25-3.95,5.4,5.4,0,0,0-2.42-.59C153.67,17.73,147.74,17.73,147,17.74Z" transform="translate(-10.52 -9.36)"/><path class="cls-1" d="M190.45,11.44A25.63,25.63,0,0,1,200.23,13a14,14,0,0,1,8.46,9A19.82,19.82,0,0,1,208,36.65a13.92,13.92,0,0,1-8.93,7.67,26.26,26.26,0,0,1-12.36.66A16.3,16.3,0,0,1,179,41.66a14.56,14.56,0,0,1-4.85-7.54,20.85,20.85,0,0,1-.48-9.26c.77-4.49,2.8-8.2,6.76-10.68a16.14,16.14,0,0,1,6.18-2.27C188.11,11.67,189.63,11.54,190.45,11.44Zm-8.22,16.72a15,15,0,0,0,.5,4,10.07,10.07,0,0,0,2.7,4.67,8.59,8.59,0,0,0,6.37,2.29,8.31,8.31,0,0,0,7.83-5A13.16,13.16,0,0,0,200,23.53a8.74,8.74,0,0,0-4.22-4.88,9.28,9.28,0,0,0-5-.9,8.11,8.11,0,0,0-6.19,3.17A11.88,11.88,0,0,0,182.23,28.16Z" transform="translate(-10.52 -9.36)"/><path class="cls-1" d="M104.61,30.45c0-4.26,0-8.52,0-12.77,0-1.9-.26-3.79-.42-5.68,0-.53,0-.55.49-.55,5.44,0,10.88,0,16.31,0a17,17,0,0,1,6.9,1.33A9.13,9.13,0,0,1,133.32,20a13,13,0,0,1,.06,4.73,11.56,11.56,0,0,1-6.33,8.46,13.24,13.24,0,0,1-6.18,1.44h-7.55c-.37,0-.46.11-.46.47,0,2.43,0,4.87,0,7.31a2.93,2.93,0,0,1-3,3c-1.65,0-3.31,0-5,0-.33,0-.37-.15-.37-.44C104.59,40.15,104.6,30.45,104.61,30.45Zm8.18-6.6s0,2.74,0,4.09c0,.34.11.44.46.44l5.28-.05a6.77,6.77,0,0,0,4.08-1.3,5.38,5.38,0,0,0,2.07-5.44,3.89,3.89,0,0,0-2.59-3.44,6.76,6.76,0,0,0-2-.39c-1.72-.06-3.43,0-5.15,0H112.8c-.3,0-.39.07-.27.4a4,4,0,0,1,.25,1.18C112.81,20.82,112.79,22.33,112.79,23.85Z" transform="translate(-10.52 -9.36)"/><path class="cls-1" d="M97.58,45.42h-3.3a2.54,2.54,0,0,1-2.59-1.78c-.35-.89-.71-1.77-1-2.67a.61.61,0,0,0-.67-.45c-2.53,0-5.06,0-7.59,0a4.65,4.65,0,0,1-4.73-3.07c0-.07-.11-.12-.17-.18s-.13.11-.16.19c-.82,2.05-1.63,4.11-2.45,6.16a2.53,2.53,0,0,1-2.58,1.79h-6c-.28,0-.38-.06-.25-.37q3.12-7.74,6.23-15.48,2.74-6.84,5.48-13.7a9.76,9.76,0,0,0,.69-4c0-.31.08-.41.39-.41,2,0,4,0,6,0a3.2,3.2,0,0,1,3.1,2.08c1.61,3.9,3.2,7.82,4.8,11.73,1.93,4.73,3.83,9.47,5.81,14.17.66,1.56,1.56,3,2.34,4.53.2.37.38.74.59,1.11s.12.36-.21.36H97.58ZM83.38,21.8c-.14.54-.21,1-.36,1.37-1.32,3.36-2.66,6.71-4,10.07-.17.42-.15.47.26.47h8.14c.29,0,.39-.07.27-.37C86.85,31.16,86,29,85.15,26.8a28.27,28.27,0,0,1-1.55-4.57A2.92,2.92,0,0,0,83.38,21.8Z" transform="translate(-10.52 -9.36)"/><path class="cls-1" d="M61.14,29.63q0,7.67,0,15.32c0,.4-.13.48-.5.47q-3.67,0-7.35,0c-.35,0-.45-.1-.45-.44,0-8.46,0-16.92,0-25.38a60.26,60.26,0,0,0-.47-7.72c0-.36.06-.45.41-.45,1.72,0,3.43,0,5.15,0a3,3,0,0,1,3.16,3.18v15Z" transform="translate(-10.52 -9.36)"/><path class="cls-1" d="M82.67,56.9c0,.32.08.63.08,1,0,1.29,0,2.57,0,3.85,0,.34-.14.44-.45.42a5.79,5.79,0,0,0-1,0c-.38,0-.47-.13-.47-.48q0-4,0-8c0-.9-.06-.74.79-.83a1.23,1.23,0,0,1,1.48,1c.45,1.29,1,2.54,1.57,3.8a.6.6,0,0,0,.26.32c0-.11,0-.21,0-.32,0-1.45,0-2.91,0-4.36,0-.31.11-.42.42-.41s.75,0,1.13,0,.36.1.36.35c0,2.87,0,5.73,0,8.6,0,.28-.13.38-.39.36a4.34,4.34,0,0,0-.51,0c-.92,0-.92,0-1.26-.84l-1.66-4a3.38,3.38,0,0,0-.24-.41Z" transform="translate(-10.52 -9.36)"/><path class="cls-1" d="M156.46,56.94a2.13,2.13,0,0,0,0,.25c0,1.5,0,3,.06,4.48,0,.35-.11.47-.46.44a7,7,0,0,0-1,0c-.32,0-.45-.08-.45-.42q0-4.24,0-8.48c0-.3.12-.4.4-.39a3.75,3.75,0,0,0,.82,0c.49-.08.69.16.86.58.56,1.38,1.15,2.75,1.74,4.12a3,3,0,0,0,.19.35l.11,0c0-.2,0-.4,0-.6,0-1.36,0-2.72,0-4.08,0-.25.08-.36.35-.34a8.67,8.67,0,0,0,1.14,0c.29,0,.42.08.42.4q0,4.23,0,8.45c0,.32-.1.46-.43.44a2.62,2.62,0,0,0-.74,0c-.53.09-.73-.18-.91-.62-.57-1.45-1.18-2.88-1.77-4.32a1.83,1.83,0,0,0-.16-.26Z" transform="translate(-10.52 -9.36)"/><path class="cls-1" d="M77.91,57.46a6.75,6.75,0,0,1-.56,2.91,3,3,0,0,1-3,1.86,3,3,0,0,1-2.77-2.1,7.56,7.56,0,0,1,0-5.38,3.09,3.09,0,0,1,5.86.14A24,24,0,0,1,78,57.44Zm-1.94,0h-.12a4.48,4.48,0,0,0,0-.9,6.35,6.35,0,0,0-.48-1.64.9.9,0,0,0-1.64,0,2.61,2.61,0,0,0-.35.82,7.2,7.2,0,0,0-.1,3,4.13,4.13,0,0,0,.49,1.42.89.89,0,0,0,1.58,0,1.38,1.38,0,0,0,.21-.42C75.7,58.92,75.83,58.19,76,57.46Z" transform="translate(-10.52 -9.36)"/><path class="cls-1" d="M144.89,57.45a6.44,6.44,0,0,1,.57-2.94,3,3,0,0,1,2.93-1.81,2.94,2.94,0,0,1,2.77,2,7.48,7.48,0,0,1,0,5.45,3,3,0,0,1-3,2,3.09,3.09,0,0,1-2.85-2.31c-.23-.8-.33-1.64-.49-2.45Zm4.84,0c-.17-.79-.29-1.56-.5-2.31a1,1,0,0,0-1-.78,1,1,0,0,0-1,.79,6.51,6.51,0,0,0-.33,1.37,6.7,6.7,0,0,0,.31,3.17,1.11,1.11,0,0,0,1,.84,1,1,0,0,0,1-.79C149.43,59,149.56,58.24,149.73,57.46Z" transform="translate(-10.52 -9.36)"/><path class="cls-1" d="M34,57.49a22.4,22.4,0,0,1-.58,2.58,3,3,0,0,1-2.95,2.16,3,3,0,0,1-2.91-2.17,7.56,7.56,0,0,1,0-5.16,3,3,0,0,1,3.09-2.2,3.14,3.14,0,0,1,2.91,2.4,9.71,9.71,0,0,1,.26,1.19c.06.38.07.78.1,1.17Zm-2-.09c-.19-.8-.34-1.59-.57-2.36a.93.93,0,0,0-.93-.67,1,1,0,0,0-.9.64,5.19,5.19,0,0,0-.36,1.28,6.39,6.39,0,0,0,.33,3.54,1,1,0,0,0,.94.71,1,1,0,0,0,.93-.72C31.68,59,31.82,58.23,32,57.4Z" transform="translate(-10.52 -9.36)"/><path class="cls-1" d="M20.72,58.1a2.33,2.33,0,0,0,0,.37c0,1.07,0,2.14,0,3.22,0,.33-.12.44-.45.41a9.37,9.37,0,0,0-1.06,0c-.3,0-.41-.09-.4-.4q0-4.06,0-8.13c0-.78-.1-.76.73-.73s1.58,0,2.35.09a2.38,2.38,0,0,1,2.19,2.82,2.69,2.69,0,0,1-1.11,2,.46.46,0,0,0-.11.44c.45,1.19.92,2.37,1.4,3.54.11.28.08.39-.24.38s-.89,0-1.33,0a.56.56,0,0,1-.4-.32c-.44-1.08-.85-2.17-1.26-3.26l-.18-.42Zm0-2.58h0a6.39,6.39,0,0,0,0,1c0,.12.2.31.32.31.76,0,1.22-.5,1.21-1.35A1.07,1.07,0,0,0,21,54.33c-.22,0-.33.09-.31.33S20.69,55.24,20.69,55.52Z" transform="translate(-10.52 -9.36)"/><path class="cls-1" d="M186,52.82c.42,0,.84,0,1.25.06a2.26,2.26,0,0,1,2,1.75,2.19,2.19,0,0,1-.61,2.47c-.19.16-.2.26,0,.43a2.49,2.49,0,0,1,.8,2.7A2.25,2.25,0,0,1,187.42,62a22.24,22.24,0,0,1-2.59.13c-.08,0-.18-.13-.24-.22s0-.13,0-.2V53.24c0-.32.07-.46.43-.41a8.68,8.68,0,0,0,1,0Zm.45,6.47v.94c0,.3.15.36.41.28a1.24,1.24,0,0,0,.81-1.26,1.17,1.17,0,0,0-.87-1.17c-.24-.06-.35,0-.35.27Zm0-3.84c0,.28,0,.55,0,.83s.14.36.4.29a1.12,1.12,0,0,0,.74-1.13,1,1,0,0,0-.77-1.06c-.25-.07-.37,0-.37.29Z" transform="translate(-10.52 -9.36)"/><path class="cls-1" d="M180.86,62.1c-1.22,0-.93.22-1.21-1-.1-.44-.27-.6-.7-.56a8.68,8.68,0,0,1-1,0,.37.37,0,0,0-.43.35,6.84,6.84,0,0,1-.21.92.54.54,0,0,1-.36.3c-.41,0-.84,0-1.26,0-.24,0-.31-.1-.25-.34.7-2.86,1.39-5.73,2.07-8.59a.41.41,0,0,1,.47-.36c.41,0,.81,0,1.22,0a.41.41,0,0,1,.49.38c.47,1.91,1,3.83,1.44,5.74.23.92.44,1.83.69,2.74.1.37,0,.45-.35.43A5.86,5.86,0,0,0,180.86,62.1Zm-2.34-6.64c-.08.26-.13.4-.16.54-.11.72-.2,1.45-.33,2.17-.18.95-.19.94.77.93.33,0,.41-.11.35-.42-.17-1-.33-1.91-.5-2.86A2.91,2.91,0,0,0,178.52,55.46Z" transform="translate(-10.52 -9.36)"/><path class="cls-1" d="M108.44,57.49a8.28,8.28,0,0,1-.52,3.08,2.25,2.25,0,0,1-2.81,1.57,2.28,2.28,0,0,1-1.53-1.57,8.75,8.75,0,0,1,0-6.35,2.18,2.18,0,0,1,2.4-1.51,2,2,0,0,1,1.5.94,5.64,5.64,0,0,1,.85,2.67C108.43,56.71,108.42,57.1,108.44,57.49Zm-3.61-.09c.08.8.13,1.55.24,2.3.05.39.19.79.68.85.3,0,.57-.33.68-.9a14.17,14.17,0,0,0,.07-4.06,1.72,1.72,0,0,0-.21-.75c-.12-.2-.37-.45-.55-.45s-.39.28-.56.46a.46.46,0,0,0-.1.29C105,55.9,104.91,56.67,104.83,57.4Z" transform="translate(-10.52 -9.36)"/><path class="cls-1" d="M111.22,57.44a7.65,7.65,0,0,1,.54-3.14A2.26,2.26,0,0,1,114,52.69a2.07,2.07,0,0,1,2,1.36,8.36,8.36,0,0,1,0,6.82,2.09,2.09,0,0,1-2.63,1.28,2,2,0,0,1-1.19-.91,6.39,6.39,0,0,1-.88-3.13C111.21,57.89,111.22,57.66,111.22,57.44Zm1.79-.19c0,.74,0,1.27.11,1.8a3.92,3.92,0,0,0,.29,1.13c.23.51.7.5,1,0a1.2,1.2,0,0,0,.13-.33,11.68,11.68,0,0,0,.19-3.73,4.47,4.47,0,0,0-.23-1.22.92.92,0,0,0-.57-.54c-.17,0-.41.28-.57.48a.85.85,0,0,0-.15.47C113.12,56,113.06,56.74,113,57.25Z" transform="translate(-10.52 -9.36)"/><path class="cls-1" d="M10.67,57.46c0-1.38,0-2.77,0-4.16,0-.37.13-.48.48-.47.73,0,1.47,0,2.2,0a2.68,2.68,0,0,1,2.17,4.2,2.65,2.65,0,0,1-2.45,1.22c-.4,0-.52.11-.51.51,0,1,0,1.91,0,2.87,0,.31-.08.46-.42.44a9.37,9.37,0,0,0-1.06,0c-.32,0-.43-.11-.43-.43,0-1.4,0-2.8,0-4.21Zm2.16-3.13c-.05.05-.25.18-.26.31,0,.6,0,1.2,0,1.8,0,.28.13.37.4.34a1.15,1.15,0,0,0,1-1.5A1,1,0,0,0,12.83,54.33Z" transform="translate(-10.52 -9.36)"/><path class="cls-1" d="M44,57.45c0-1.41,0-2.81,0-4.21,0-.33.11-.43.44-.42,1,0,2,0,2.95,0,.34,0,.48.09.45.45a6.17,6.17,0,0,0,0,.86c0,.32-.12.42-.41.4s-.76,0-1.14,0-.39.1-.38.37c0,.45,0,.89,0,1.34,0,.26.11.35.36.34h1c.23,0,.33.09.33.33s0,.73,0,1.09a.45.45,0,0,1-.3.3,8.68,8.68,0,0,1-1,0c-.26,0-.38.09-.37.37,0,.46,0,.92,0,1.37,0,.28.11.38.37.37.42,0,.84,0,1.26,0,.25,0,.35.1.34.36a8,8,0,0,0,0,1c0,.29-.09.41-.38.4H44.37c-.32,0-.36-.17-.36-.43,0-1.42,0-2.83,0-4.24Z" transform="translate(-10.52 -9.36)"/><path class="cls-1" d="M199.29,57.43c0-1.39,0-2.78,0-4.17,0-.32.08-.44.42-.43,1,0,2,0,2.95,0,.35,0,.47.11.44.46a6.76,6.76,0,0,0,0,.9c0,.24-.09.34-.32.33-.38,0-.76,0-1.14,0s-.49.09-.47.45,0,.81,0,1.21.13.42.42.4h1c.24,0,.34.09.33.33s0,.71,0,1.06-.11.33-.34.32H201.5c-.23,0-.33.1-.33.33,0,.47,0,.94,0,1.42,0,.27.12.37.38.36s.79,0,1.18,0,.44.08.41.41,0,.65,0,1-.1.33-.33.33h-3.22c-.32,0-.3-.21-.3-.43V57.43Z" transform="translate(-10.52 -9.36)"/><path class="cls-1" d="M142.34,61.22c0,.94,0,1-1,1a3.88,3.88,0,0,1-3.75-2.73,5,5,0,0,1,.82-5.37,3.65,3.65,0,0,1,3.33-1.32c.53,0,.59.13.59.66V54c0,.56,0,.57-.55.53a2.14,2.14,0,0,0-2,.86,3.68,3.68,0,0,0,.43,4.58,2,2,0,0,0,1.57.48c.52-.06.52-.06.51.45Z" transform="translate(-10.52 -9.36)"/><path class="cls-1" d="M55.75,61.2c0,1,0,1-1,1a4.17,4.17,0,0,1-4-3.42,5.18,5.18,0,0,1,.51-3.94,4,4,0,0,1,4-2.07c.36.06.55.19.5.59s0,.6,0,.9c0,.1-.18.27-.27.26a2.26,2.26,0,0,0-2.1.7,3.16,3.16,0,0,0-.72,2.45,3.35,3.35,0,0,0,.84,2.11,1.91,1.91,0,0,0,1.81.63c.42-.08.49.06.45.41C55.74,60.93,55.75,61.07,55.75,61.2Z" transform="translate(-10.52 -9.36)"/><path class="cls-1" d="M63.44,61.19c0,1-.06,1-1,1a4.18,4.18,0,0,1-4-3.67,4.85,4.85,0,0,1,1.79-5,3.63,3.63,0,0,1,2.78-.7c.33.05.5.19.46.55a4.94,4.94,0,0,0,0,.86c0,.28-.1.38-.38.34A2.42,2.42,0,0,0,60.34,57a3.6,3.6,0,0,0,.81,2.71,1.84,1.84,0,0,0,1.79.67c.42-.07.56,0,.5.44A2.16,2.16,0,0,0,63.44,61.19Z" transform="translate(-10.52 -9.36)"/><path class="cls-1" d="M163.8,57.47c0-1.42,0-2.83,0-4.24,0-.29.08-.41.37-.41h3.07c.33,0,.42.13.42.45,0,1.25,0,1.25-1.25,1.25h-.36c-.25,0-.35.1-.35.35,0,.44,0,.89,0,1.33,0,.26.12.35.37.34h1c.26,0,.38.09.37.37a7.37,7.37,0,0,0,0,.94c0,.32-.13.42-.42.41s-.63,0-.94,0-.4.1-.4.39c0,1,0,2,0,3,0,.41-.13.54-.52.5a4.92,4.92,0,0,0-.94,0c-.34,0-.47-.08-.47-.44,0-1.4,0-2.8,0-4.2Z" transform="translate(-10.52 -9.36)"/><path class="cls-1" d="M39.74,58.37c0,1.1,0,2.2,0,3.3,0,.35-.13.47-.47.44a8,8,0,0,0-1,0c-.34,0-.46-.08-.46-.44,0-2.21,0-4.42,0-6.64,0-.4-.12-.52-.52-.51-1,0-1,0-1-1,0-.12,0-.24,0-.36s.09-.35.34-.35h4.17c.26,0,.39.09.38.37a8,8,0,0,0,0,1c0,.28-.12.38-.38.36h0c-1.1,0-1.1,0-1.1,1.09v2.75Z" transform="translate(-10.52 -9.36)"/><path class="cls-1" d="M192.62,57.45c0-1.4,0-2.81,0-4.21,0-.3.08-.43.4-.41a7,7,0,0,0,1,0c.34,0,.46.08.46.43,0,2.2,0,4.4,0,6.6,0,.42.13.57.54.53s.74,0,1.1,0,.4.09.37.39,0,.65,0,1-.08.36-.34.36H193c-.31,0-.36-.16-.36-.42,0-1.42,0-2.83,0-4.24Z" transform="translate(-10.52 -9.36)"/><path class="cls-1" d="M98.63,57.48c0,1.38,0,2.77,0,4.16,0,.35-.1.5-.47.48a8,8,0,0,0-1,0c-.33,0-.43-.12-.43-.44,0-2.23,0-4.47,0-6.71,0-.4-.08-.6-.52-.53s-.42-.12-.42-.44c0-1.17,0-1.17,1.18-1.17.39,0,.78,0,1.17,0s.45.13.45.47c0,1.4,0,2.8,0,4.2Z" transform="translate(-10.52 -9.36)"/><path class="cls-1" d="M66.32,57.46c0-1.4,0-2.8,0-4.2,0-.35.11-.47.46-.45s.73,0,1.1,0,.35.09.35.35v8.6c0,.26-.12.35-.36.34H66.73c-.31,0-.42-.1-.41-.4,0-1.42,0-2.83,0-4.25Z" transform="translate(-10.52 -9.36)"/><path class="cls-1" d="M172.65,57.51c0,1.38,0,2.77,0,4.16,0,.35-.1.47-.45.44a7.5,7.5,0,0,0-1.06,0c-.28,0-.41-.08-.41-.38q0-4.26,0-8.52c0-.3.11-.4.4-.39a8.08,8.08,0,0,0,1.1,0c.31,0,.41.09.4.4,0,1.43,0,2.86,0,4.29Z" transform="translate(-10.52 -9.36)"/><path class="cls-1" d="M125.34,59.41a11.17,11.17,0,0,1,.37-1.49,1.69,1.69,0,0,1,1.82-1.07A1.67,1.67,0,0,1,129.15,58a4.12,4.12,0,0,1,0,3.07,1.71,1.71,0,0,1-1.92,1.09,1.69,1.69,0,0,1-1.59-1.29C125.48,60.42,125.44,60,125.34,59.41Zm1.55.08c.06.32.1.64.19.95a.49.49,0,0,0,.32.28.45.45,0,0,0,.32-.27,2.65,2.65,0,0,0,0-1.88c0-.12-.23-.29-.32-.27a.55.55,0,0,0-.35.3A7.8,7.8,0,0,0,126.89,59.49Z" transform="translate(-10.52 -9.36)"/><path class="cls-1" d="M119.39,55.38a10,10,0,0,1,.3-1.44,1.69,1.69,0,0,1,1.67-1.2,1.71,1.71,0,0,1,1.79,1.09,4.09,4.09,0,0,1,0,3.13,1.68,1.68,0,0,1-1.89,1.1,1.75,1.75,0,0,1-1.64-1.31,4.58,4.58,0,0,1-.14-.53c0-.27,0-.55,0-.82Zm1.53,0c.07.34.12.68.22,1a.31.31,0,0,0,.61,0,2.81,2.81,0,0,0,0-2,.44.44,0,0,0-.31-.24.41.41,0,0,0-.31.23A9.6,9.6,0,0,0,120.92,55.38Z" transform="translate(-10.52 -9.36)"/><path class="cls-1" d="M122.24,62.11c-.77,0-.78,0-.47-.64,1.35-2.76,2.72-5.51,4.06-8.27a.62.62,0,0,1,.68-.39c.88,0,.88,0,.51.78-1.32,2.7-2.66,5.39-4,8.1A.69.69,0,0,1,122.24,62.11Z" transform="translate(-10.52 -9.36)"/><path class="cls-1" d="M216,13.85a3.16,3.16,0,1,1,0,6.31,3.16,3.16,0,1,1,0-6.31ZM213.43,17a2.64,2.64,0,1,0,2.63-2.53A2.57,2.57,0,0,0,213.43,17Z" transform="translate(-10.52 -9.36)"/><path class="cls-1" d="M207.81,54.8c0,.25.18.62-.29.59a.4.4,0,0,1-.29-.25,2,2,0,0,1,0-.43c0-.15,0-.3-.06-.45-.14.06-.29.1-.42.16a1.85,1.85,0,0,0-.33.21c-.22.19-.34.06-.47-.12s0-.33.14-.43.31-.15.45-.24a1.37,1.37,0,0,0,.22-.2,2.05,2.05,0,0,0-.23-.2c-.13-.08-.27-.15-.41-.22s-.33-.19-.17-.42.26-.28.5-.12c.75.48.76.47.78-.4,0-.21,0-.35.3-.35s.34.1.34.36c0,.83,0,.84.75.39.25-.16.37-.09.5.12s0,.32-.18.42l-.65.41.65.44c.16.1.34.17.18.41s-.25.35-.48.14a1.37,1.37,0,0,0-.2-.13l-.48-.23Z" transform="translate(-10.52 -9.36)"/><path class="cls-1" d="M76.17,50.69a1.93,1.93,0,0,1-.17.2c-.4.41-.79.82-1.2,1.23-.21.21-.56.14-.91-.18s0-.35.1-.49a12.54,12.54,0,0,1,.79-1.12.53.53,0,0,1,.44-.13,4.13,4.13,0,0,1,.75.32A1,1,0,0,1,76.17,50.69Z" transform="translate(-10.52 -9.36)"/><path class="cls-1" d="M214.92,18.39v-3h1.26a2.19,2.19,0,0,1,.68.08.69.69,0,0,1,.35.28.92.92,0,0,1,.13.47.81.81,0,0,1-.2.55,1,1,0,0,1-.58.27,1.69,1.69,0,0,1,.32.25,4.66,4.66,0,0,1,.34.48l.36.57h-.72l-.43-.64a4.73,4.73,0,0,0-.31-.43.68.68,0,0,0-.18-.13,1.05,1.05,0,0,0-.3,0h-.12v1.23Zm.6-1.7H216a1.89,1.89,0,0,0,.53,0,.27.27,0,0,0,.17-.12.38.38,0,0,0,.06-.22.32.32,0,0,0-.08-.24.34.34,0,0,0-.22-.12h-.9Z" transform="translate(-10.52 -9.36)"/></svg>